<svg width="156" height="45" viewBox="0 0 156 45" fill="none" xmlns="http://www.w3.org/2000/svg">
<path d="M3.37607 24.6932V6.51142H10.8867C12.248 6.51142 13.4228 6.77775 14.4112 7.31042C15.4055 7.83718 16.172 8.57404 16.7106 9.52101C17.2492 10.4621 17.5185 11.557 17.5185 12.8058C17.5185 14.0605 17.2433 15.1584 16.6928 16.0995C16.1483 17.0346 15.37 17.7596 14.358 18.2746C13.3459 18.7895 12.1444 19.0469 10.7536 19.0469H6.11932V15.5846H9.93679C10.5997 15.5846 11.1531 15.4692 11.5969 15.2383C12.0468 15.0075 12.3871 14.685 12.6179 14.2707C12.8487 13.8504 12.9641 13.3622 12.9641 12.8058C12.9641 12.2435 12.8487 11.7582 12.6179 11.3498C12.3871 10.9355 12.0468 10.6159 11.5969 10.391C11.1471 10.1661 10.5938 10.0537 9.93679 10.0537H7.7706V24.6932H3.37607ZM19.6847 24.6932V11.0569H23.9016V13.5427H24.0437C24.2923 12.643 24.6977 11.9743 25.2599 11.5363C25.8222 11.0924 26.4762 10.8704 27.2219 10.8704C27.4232 10.8704 27.6303 10.8852 27.8434 10.9148C28.0565 10.9385 28.2547 10.977 28.4382 11.0302V14.8033C28.2311 14.7323 27.9588 14.6761 27.6214 14.6346C27.29 14.5932 26.9941 14.5725 26.7337 14.5725C26.2188 14.5725 25.7541 14.6879 25.3398 14.9187C24.9315 15.1436 24.6089 15.4603 24.3722 15.8687C24.1413 16.2711 24.0259 16.7446 24.0259 17.2891V24.6932H19.6847ZM33.2766 29.8069C32.7558 29.8069 32.2646 29.7654 31.8029 29.6826C31.3413 29.6056 30.9447 29.5021 30.6133 29.3719L31.5721 26.2202C31.9982 26.3623 32.3829 26.4451 32.7262 26.4688C33.0754 26.4925 33.3743 26.4363 33.6229 26.3001C33.8774 26.1699 34.0727 25.9361 34.2088 25.5988L34.3775 25.1904L29.5302 11.0569H34.0756L36.5881 20.787H36.7301L39.2781 11.0569H43.8501L38.7099 25.9983C38.4613 26.744 38.1091 27.401 37.6534 27.9692C37.2036 28.5433 36.6206 28.9931 35.9045 29.3186C35.1942 29.6441 34.3183 29.8069 33.2766 29.8069ZM50.0558 24.8885C49.0496 24.8885 48.1352 24.6281 47.3125 24.1073C46.4898 23.5865 45.8329 22.8052 45.3416 21.7635C44.8504 20.7219 44.6048 19.4287 44.6048 17.8839C44.6048 16.28 44.8593 14.9602 45.3683 13.9244C45.8772 12.8887 46.5431 12.1222 47.3658 11.6251C48.1944 11.1279 49.0851 10.8793 50.038 10.8793C50.7541 10.8793 51.3667 11.0036 51.8757 11.2522C52.3847 11.4948 52.8049 11.8085 53.1364 12.1932C53.4678 12.5779 53.7193 12.9774 53.891 13.3917H53.9798V6.51142H58.321V24.6932H54.0241V22.4827H53.891C53.7075 22.9029 53.4471 23.2965 53.1097 23.6634C52.7724 24.0304 52.3492 24.3263 51.8402 24.5512C51.3371 24.7761 50.7423 24.8885 50.0558 24.8885ZM51.565 21.5061C52.0917 21.5061 52.5415 21.3581 52.9144 21.0622C53.2873 20.7604 53.5743 20.3372 53.7756 19.7927C53.9768 19.2482 54.0774 18.609 54.0774 17.8751C54.0774 17.1293 53.9768 16.4872 53.7756 15.9486C53.5803 15.41 53.2932 14.9957 52.9144 14.7057C52.5415 14.4157 52.0917 14.2707 51.565 14.2707C51.0264 14.2707 50.5707 14.4186 50.1978 14.7145C49.8249 15.0105 49.5408 15.4277 49.3455 15.9663C49.1561 16.5049 49.0614 17.1412 49.0614 17.8751C49.0614 18.609 49.1591 19.2482 49.3544 19.7927C49.5497 20.3372 49.8308 20.7604 50.1978 21.0622C50.5707 21.3581 51.0264 21.5061 51.565 21.5061ZM67.4408 24.9507C66.0144 24.9507 64.7834 24.6696 63.7476 24.1073C62.7178 23.5391 61.9247 22.7312 61.3683 21.6836C60.8179 20.6301 60.5427 19.3784 60.5427 17.9283C60.5427 16.5197 60.8209 15.2886 61.3772 14.2351C61.9336 13.1757 62.7178 12.353 63.7298 11.7671C64.7419 11.1752 65.9345 10.8793 67.3076 10.8793C68.2783 10.8793 69.166 11.0302 69.971 11.3321C70.7759 11.6339 71.4713 12.0808 72.0573 12.6726C72.6432 13.2645 73.0989 13.9954 73.4244 14.8655C73.75 15.7296 73.9127 16.7209 73.9127 17.8395V18.9226H62.0608V16.4013H69.8733C69.8674 15.9397 69.7579 15.5283 69.5448 15.1673C69.3318 14.8063 69.0388 14.5251 68.6659 14.3239C68.299 14.1168 67.8758 14.0132 67.3964 14.0132C66.9111 14.0132 66.4761 14.1227 66.0914 14.3417C65.7066 14.5547 65.4018 14.8477 65.1769 15.2206C64.952 15.5875 64.8337 16.0048 64.8218 16.4724V19.0381C64.8218 19.5944 64.9313 20.0827 65.1503 20.5029C65.3693 20.9172 65.68 21.2398 66.0825 21.4706C66.4849 21.7014 66.9643 21.8168 67.5207 21.8168C67.9054 21.8168 68.2546 21.7635 68.5683 21.657C68.882 21.5505 69.1512 21.3936 69.3762 21.1865C69.6011 20.9793 69.7697 20.7248 69.8822 20.423L73.8683 20.5384C73.7026 21.4321 73.3386 22.2104 72.7764 22.8733C72.22 23.5302 71.4891 24.0422 70.5835 24.4091C69.678 24.7702 68.6304 24.9507 67.4408 24.9507ZM75.7482 9.27243V6.51142H90.2546V9.27243H84.6349V24.6932H81.3679V9.27243H75.7482ZM91.4931 24.6932V11.0569H94.6092V13.3296H94.7512C94.9998 12.5424 95.426 11.9358 96.0297 11.5096C96.6393 11.0776 97.3347 10.8616 98.1159 10.8616C98.2935 10.8616 98.4918 10.8704 98.7108 10.8882C98.9357 10.9 99.1221 10.9207 99.2701 10.9503V13.9067C99.1339 13.8593 98.9179 13.8179 98.622 13.7824C98.332 13.7409 98.0508 13.7202 97.7786 13.7202C97.1926 13.7202 96.6659 13.8475 96.1983 14.102C95.7367 14.3506 95.3727 14.6968 95.1064 15.1407C94.84 15.5846 94.7069 16.0965 94.7069 16.6765V24.6932H91.4931ZM105.085 24.9685C104.221 24.9685 103.443 24.8146 102.75 24.5068C102.064 24.1931 101.519 23.7315 101.117 23.1219C100.72 22.5122 100.522 21.7606 100.522 20.8669C100.522 20.0975 100.664 19.4612 100.948 18.9582C101.232 18.4551 101.62 18.0526 102.111 17.7508C102.602 17.4489 103.156 17.2211 103.771 17.0672C104.393 16.9074 105.035 16.792 105.698 16.7209C106.497 16.6381 107.145 16.5641 107.642 16.499C108.139 16.428 108.5 16.3214 108.725 16.1794C108.956 16.0314 109.071 15.8036 109.071 15.4958V15.4425C109.071 14.7737 108.873 14.2559 108.476 13.8889C108.08 13.522 107.509 13.3385 106.763 13.3385C105.976 13.3385 105.351 13.5101 104.89 13.8534C104.434 14.1967 104.126 14.6021 103.966 15.0697L100.966 14.6435C101.202 13.8149 101.593 13.1225 102.138 12.5661C102.682 12.0038 103.348 11.5836 104.135 11.3055C104.922 11.0214 105.792 10.8793 106.745 10.8793C107.402 10.8793 108.056 10.9563 108.707 11.1101C109.358 11.264 109.953 11.5185 110.492 11.8736C111.03 12.2228 111.462 12.6993 111.788 13.303C112.119 13.9067 112.285 14.6613 112.285 15.5668V24.6932H109.195V22.82H109.089C108.894 23.1988 108.618 23.5539 108.263 23.8854C107.914 24.2109 107.473 24.4743 106.941 24.6755C106.414 24.8708 105.795 24.9685 105.085 24.9685ZM105.92 22.6069C106.565 22.6069 107.124 22.4797 107.597 22.2252C108.071 21.9648 108.435 21.6215 108.689 21.1954C108.95 20.7692 109.08 20.3046 109.08 19.8015V18.1947C108.979 18.2775 108.808 18.3545 108.565 18.4255C108.328 18.4965 108.062 18.5586 107.766 18.6119C107.47 18.6652 107.177 18.7125 106.887 18.754C106.597 18.7954 106.346 18.8309 106.133 18.8605C105.653 18.9256 105.224 19.0321 104.845 19.1801C104.467 19.3281 104.168 19.5352 103.949 19.8015C103.73 20.062 103.62 20.3993 103.62 20.8136C103.62 21.4055 103.836 21.8523 104.268 22.1542C104.7 22.456 105.251 22.6069 105.92 22.6069ZM127.209 11.0569L122.352 24.6932H118.801L113.945 11.0569H117.372L120.506 21.1865H120.648L123.791 11.0569H127.209ZM135.006 24.9596C133.638 24.9596 132.458 24.6755 131.463 24.1073C130.475 23.5332 129.714 22.7224 129.182 21.6748C128.649 20.6213 128.383 19.3813 128.383 17.955C128.383 16.5523 128.649 15.3212 129.182 14.2618C129.72 13.1964 130.472 12.3678 131.437 11.776C132.401 11.1782 133.535 10.8793 134.837 10.8793C135.677 10.8793 136.47 11.0154 137.216 11.2877C137.968 11.554 138.631 11.9683 139.205 12.5306C139.785 13.0929 140.241 13.809 140.572 14.679C140.903 15.5431 141.069 16.573 141.069 17.7685V18.754H129.892V16.5878H137.989C137.983 15.9722 137.849 15.4248 137.589 14.9454C137.329 14.46 136.965 14.0783 136.497 13.8001C136.035 13.522 135.497 13.3829 134.881 13.3829C134.224 13.3829 133.647 13.5427 133.15 13.8623C132.653 14.176 132.265 14.5903 131.987 15.1052C131.715 15.6142 131.576 16.1735 131.57 16.7831V18.6741C131.57 19.4671 131.715 20.1478 132.005 20.716C132.295 21.2782 132.7 21.7103 133.221 22.0121C133.742 22.3081 134.352 22.456 135.05 22.456C135.518 22.456 135.941 22.3909 136.32 22.2607C136.698 22.1246 137.027 21.9263 137.305 21.6659C137.583 21.4055 137.793 21.0829 137.935 20.6982L140.936 21.0356C140.747 21.8287 140.386 22.5211 139.853 23.113C139.326 23.6989 138.651 24.1546 137.829 24.4802C137.006 24.7998 136.065 24.9596 135.006 24.9596ZM147.002 6.51142V24.6932H143.788V6.51142H147.002ZM152.286 24.8885C151.748 24.8885 151.286 24.6992 150.901 24.3204C150.517 23.9416 150.327 23.4799 150.333 22.9354C150.327 22.4028 150.517 21.947 150.901 21.5682C151.286 21.1894 151.748 21.0001 152.286 21.0001C152.807 21.0001 153.26 21.1894 153.645 21.5682C154.035 21.947 154.234 22.4028 154.239 22.9354C154.234 23.2965 154.139 23.6249 153.955 23.9209C153.778 24.2168 153.541 24.4535 153.245 24.6311C152.955 24.8027 152.636 24.8885 152.286 24.8885Z" fill="white"/>
<path d="M2 33.6932C15.6667 40.1932 49.8 49.2932 77 33.6932" stroke="#CCF32F" stroke-width="4" stroke-linecap="round"/>
</svg>
